<svg id="vector" xmlns="http://www.w3.org/2000/svg" width="36.0d" height="36.0d" viewBox="0 0 27.0 27.0"><path fill="#061d33" d="M9.1686,18.9404C11.7771,21.9674 14.3694,24.0001 14.3694,24.0001C14.3694,24.0001 16.9617,21.9674 19.5701,18.9404H22.5676C23.3462,18.9404 24.054,19.3923 24.3818,20.0986L26.2657,24.1583C26.8808,25.4839 25.9129,27.0001 24.4515,27.0001H4.0024C2.541,27.0001 1.5731,25.4839 2.1882,24.1583L4.0721,20.0986C4.3998,19.3923 5.1077,18.9404 5.8863,18.9404H9.1686Z" fill-rule="evenodd" id="path_0"/><path fill="#061d33" d="M14.2271,0C9.7048,0 6.0531,3.6752 6.0531,8.1725C6.0531,14.8702 14.2271,21.7612 14.2271,21.7612C14.2271,21.7612 22.4011,14.8702 22.4011,8.1725C22.4011,3.6752 18.7494,0 14.2271,0ZM14.0056,11.7176C16.0861,11.7176 17.7726,10.0313 17.7726,7.9512C17.7726,5.8711 16.0861,4.1848 14.0056,4.1848C11.9251,4.1848 10.2386,5.8711 10.2386,7.9512C10.2386,10.0313 11.9251,11.7176 14.0056,11.7176Z" fill-rule="evenodd" id="path_1"/></svg>