<svg id="vector" xmlns="http://www.w3.org/2000/svg" width="36.0d" height="36.0d" viewBox="0 0 36.0 36.0"><path fill="#061d33" d="M27.673,5.5944C28.3602,5.6518 29.0221,5.7734 29.6551,5.9642C31.2019,6.4303 32.3943,7.0922 33.2667,7.9093C34.4531,9.0205 34.878,10.1856 34.8893,11.0435C34.8915,11.6859 34.6093,12.6667 33.8115,13.8473C32.6141,15.6195 30.4892,17.756 27.5314,19.5873C27.5237,19.592 27.5009,19.6159 27.5496,19.668C28.6685,20.8637 29.0954,22.1829 28.2122,23.5352C27.5015,24.6239 26.5304,24.2379 25.8074,23.2757C25.5791,22.972 25.3519,22.5947 25.1031,22.1266C25.0039,21.9399 24.9064,21.7487 24.7888,21.5126C24.7857,21.5062 24.7783,21.4059 24.7106,21.4441C22.1421,22.8914 16.3329,24.5847 9.9412,24.3803C9.7647,24.3746 9.4891,24.3276 9.4715,24.3767C9.2763,24.9211 9.0343,25.4635 8.7393,25.9777C7.8336,27.5568 6.6009,28.5891 4.9907,28.7162C4.5264,28.7528 4.1188,28.4002 4.0725,27.922C4.0388,27.5745 4.0213,27.2023 4.0183,26.8082C4.0124,26.0423 4.0601,25.2297 4.1433,24.421C4.1706,24.1549 4.1993,24.1069 4.0586,24.0487C3.0741,23.6414 2.001,22.7898 0.8808,21.5609C0.6955,21.3575 0.5148,21.1459 0.3392,20.9257C-0.0618,20.4228 0.1834,19.6601 0.7961,19.5044C1.2035,19.4009 1.6252,19.3309 2.0596,19.2922C3.6024,19.1549 5.2255,19.4092 6.8228,19.9138C7.2751,20.0568 7.692,20.21 8.0649,20.3639C8.2926,20.4578 8.4581,20.5327 8.5527,20.5787L7.8502,20.5652C9.6381,19.7769 11.2733,18.3768 12.7349,16.5331C13.579,15.4683 14.3118,14.3234 14.9281,13.1787C15.0756,12.9046 15.3894,12.3671 15.3149,12.3026C14.6699,11.7442 13.6619,10.8692 12.3994,9.5023C12.0059,9.0763 12.1176,8.3799 12.6231,8.1076C12.6959,8.0686 12.6959,8.0686 12.7687,8.0309C14.8021,6.985 16.9424,6.8606 18.9013,7.2695C19.0509,7.3008 19.3673,7.3574 19.713,7.2226C20.2433,7.0158 20.7871,6.7607 21.402,6.5456C23.5101,5.8079 25.6476,5.4252 27.673,5.5944ZM27.6307,12.4303C28.5578,12.4303 29.3094,11.6787 29.3094,10.7516C29.3094,9.8245 28.5578,9.0729 27.6307,9.0729C26.7036,9.0729 25.952,9.8245 25.952,10.7516C25.952,11.6787 26.7036,12.4303 27.6307,12.4303Z" stroke-width="1.0" fill-rule="nonzero" id="path_0"/></svg>