<svg id="vector" xmlns="http://www.w3.org/2000/svg" width="24.0d" height="24.0d" viewBox="0 0 24.0 24.0"><path fill="#00000000" d="M2.421,8.719C3.111,6.071 5.222,4.044 7.872,3.485L8.379,3.378C10.767,2.874 13.233,2.874 15.621,3.378L16.128,3.485C18.778,4.044 20.889,6.071 21.579,8.719C22.14,10.87 22.14,13.13 21.579,15.281C20.889,17.93 18.778,19.956 16.128,20.515L15.621,20.622C13.233,21.126 10.767,21.126 8.379,20.622L7.872,20.515C5.222,19.956 3.111,17.93 2.421,15.281C1.86,13.13 1.86,10.87 2.421,8.719Z" stroke="?colorOnSurface" stroke-width="2.0" id="path_0"/><path fill="#00000000" d="M6,12H8L10,15L14,9L16,12H18" stroke-width="2.0" stroke-linecap="round" stroke-linejoin="round" id="path_1"/></svg>