<svg id="vector" xmlns="http://www.w3.org/2000/svg" width="36.0d" height="36.0d" viewBox="0 0 36.0 36.0"><path fill="#061d33" d="M10.8,6L25.2,6C27.851,6 30,8.149 30,10.8L30,25.2C30,27.851 27.851,30 25.2,30L10.8,30C8.149,30 6,27.851 6,25.2L6,10.8C6,8.149 8.149,6 10.8,6ZM24,13C24.5523,13 25,12.5523 25,12C25,11.4477 24.5523,11 24,11L12,11C11.4477,11 11,11.4477 11,12C11,12.5523 11.4477,13 12,13L24,13ZM24,19C24.5523,19 25,18.5523 25,18C25,17.4477 24.5523,17 24,17L12,17C11.4477,17 11,17.4477 11,18C11,18.5523 11.4477,19 12,19L24,19ZM19,25.5C19.5523,25.5 20,25.0523 20,24.5L20,24C20,23.4477 19.5523,23 19,23L12,23C11.4477,23 11,23.4477 11,24L11,24.5C11,25.0523 11.4477,25.5 12,25.5L19,25.5Z" stroke="#00000000" stroke-width="1.0" fill-rule="evenodd" id="path_0"/></svg>