<svg id="vector" xmlns="http://www.w3.org/2000/svg" width="24.0d" height="24.0d" viewBox="0 0 24.0 24.0"><defs><clipPath id="clip_path_0"><path d="M9.12,7.2H14.88C15.9403,7.2 16.8,8.0596 16.8,9.12V14.88C16.8,15.9404 15.9403,16.8 14.88,16.8H9.12C8.0596,16.8 7.2,15.9404 7.2,14.88V9.12C7.2,8.0596 8.0596,7.2 9.12,7.2ZM14.4,10C14.6209,10 14.8,9.8209 14.8,9.6C14.8,9.3791 14.6209,9.2 14.4,9.2H9.5999C9.379,9.2 9.2,9.3791 9.2,9.6C9.2,9.8209 9.379,10 9.5999,10H14.4ZM14.4,12.4C14.6209,12.4 14.8,12.2209 14.8,12C14.8,11.7791 14.6209,11.6 14.4,11.6H9.5999C9.379,11.6 9.2,11.7791 9.2,12C9.2,12.2209 9.379,12.4 9.5999,12.4H14.4ZM12.4,15C12.6209,15 12.8,14.8209 12.8,14.6V14.4C12.8,14.1791 12.6209,14 12.4,14H9.5999C9.379,14 9.2,14.1791 9.2,14.4V14.6C9.2,14.8209 9.379,15 9.5999,15H12.4Z"/></clipPath></defs><path fill="#061d33" d="M12,12m-12,0a12,12 0,1 1,24 0a12,12 0,1 1,-24 0" id="path_0"/><g id="g_0"><path fill="white" d="M5.2,18.8H18.8V5.2H5.2V18.8Z" fill-rule="evenodd" clip-path="url(#clip_path_0)"/></g></svg>