<svg id="vector" xmlns="http://www.w3.org/2000/svg" width="24.0d" height="25.0d" viewBox="0 0 24.0 25.0"><path  d="M8.03,17.895L8.142,16.901L6.945,16.766L7.032,17.967L8.03,17.895ZM15.97,17.895L16.967,17.967L17.055,16.766L15.858,16.901L15.97,17.895ZM15.849,18.656L16.821,18.895V18.895L15.849,18.656ZM15.741,19.099L14.77,18.86V18.86L15.741,19.099ZM12.934,21.895L13.167,22.867L13.167,22.867L12.934,21.895ZM11.066,21.895L10.833,22.867H10.833L11.066,21.895ZM8.259,19.099L9.23,18.86V18.86L8.259,19.099ZM8.15,18.656L7.179,18.895V18.895L8.15,18.656ZM7.918,18.888C10.631,19.193 13.369,19.193 16.082,18.888L15.858,16.901C13.294,17.189 10.706,17.189 8.142,16.901L7.918,18.888ZM16.821,18.895C16.896,18.59 16.945,18.28 16.967,17.967L14.973,17.822C14.958,18.023 14.927,18.222 14.878,18.417L16.821,18.895ZM16.712,19.337L16.821,18.895L14.878,18.417L14.77,18.86L16.712,19.337ZM13.167,22.867C14.915,22.449 16.282,21.085 16.712,19.337L14.77,18.86C14.518,19.885 13.718,20.679 12.702,20.922L13.167,22.867ZM10.833,22.867C11.6,23.051 12.4,23.051 13.167,22.867L12.702,20.922C12.24,21.032 11.76,21.032 11.298,20.922L10.833,22.867ZM7.288,19.337C7.718,21.085 9.084,22.449 10.833,22.867L11.298,20.922C10.282,20.679 9.482,19.885 9.23,18.86L7.288,19.337ZM7.179,18.895L7.288,19.337L9.23,18.86L9.121,18.417L7.179,18.895ZM7.032,17.967C7.055,18.28 7.104,18.59 7.179,18.895L9.121,18.417C9.073,18.222 9.042,18.023 9.027,17.822L7.032,17.967Z" id="path_0"/><path  d="M10.158,4.802C8.15,5.453 6.582,7.086 6.028,9.132L5.983,9.297C5.624,10.623 5.558,12.012 5.79,13.367L5.812,13.498C5.832,13.615 5.772,13.732 5.668,13.788C4.972,14.168 4.5,14.908 4.5,15.76C4.5,16.826 5.248,17.745 6.288,17.956L6.655,18.031C10.182,18.75 13.818,18.75 17.345,18.031L17.712,17.956C18.753,17.745 19.5,16.826 19.5,15.76C19.5,14.917 19.037,14.183 18.353,13.8C18.237,13.735 18.17,13.604 18.192,13.473L18.216,13.334C18.444,12 18.385,10.634 18.042,9.326L17.979,9.088C17.45,7.07 15.94,5.459 13.967,4.808C12.735,4.401 11.393,4.401 10.158,4.802Z" id="path_1"/><path  d="M6.028,9.132L6.993,9.393L6.993,9.393L6.028,9.132ZM10.158,4.802L9.85,3.85L10.158,4.802ZM5.983,9.297L5.018,9.036L5.018,9.036L5.983,9.297ZM5.79,13.367L6.775,13.198L6.775,13.198L5.79,13.367ZM5.812,13.498L4.826,13.667L4.826,13.667L5.812,13.498ZM6.288,17.956L6.487,16.977H6.487L6.288,17.956ZM6.655,18.031L6.456,19.011H6.456L6.655,18.031ZM17.345,18.031L17.544,19.011H17.544L17.345,18.031ZM17.712,17.956L17.513,16.977H17.513L17.712,17.956ZM18.192,13.473L19.178,13.642L19.178,13.642L18.192,13.473ZM18.216,13.334L17.23,13.165L17.23,13.165L18.216,13.334ZM18.042,9.326L17.074,9.579V9.579L18.042,9.326ZM17.979,9.088L18.947,8.834V8.834L17.979,9.088ZM13.967,4.808L14.281,3.858L13.967,4.808ZM18.353,13.8L17.865,14.673L18.353,13.8ZM5.668,13.788L6.147,14.666L5.668,13.788ZM9.121,17.409C8.572,17.347 8.077,17.742 8.015,18.291C7.954,18.84 8.349,19.335 8.897,19.396L9.121,17.409ZM15.103,19.396C15.651,19.335 16.046,18.84 15.985,18.291C15.923,17.742 15.428,17.347 14.879,17.409L15.103,19.396ZM6.993,9.393C7.458,7.676 8.777,6.3 10.467,5.753L9.85,3.85C7.523,4.605 5.706,6.496 5.063,8.87L6.993,9.393ZM6.948,9.559L6.993,9.393L5.063,8.87L5.018,9.036L6.948,9.559ZM6.775,13.198C6.568,11.987 6.627,10.745 6.948,9.559L5.018,9.036C4.62,10.502 4.547,12.038 4.804,13.535L6.775,13.198ZM6.798,13.329L6.775,13.198L4.804,13.535L4.826,13.667L6.798,13.329ZM5.5,15.76C5.5,15.287 5.761,14.877 6.147,14.666L5.189,12.911C4.184,13.459 3.5,14.53 3.5,15.76H5.5ZM6.487,16.977C5.916,16.86 5.5,16.354 5.5,15.76H3.5C3.5,17.298 4.579,18.629 6.088,18.936L6.487,16.977ZM6.855,17.052L6.487,16.977L6.088,18.936L6.456,19.011L6.855,17.052ZM17.145,17.052C13.75,17.743 10.25,17.743 6.855,17.052L6.456,19.011C10.115,19.757 13.885,19.757 17.544,19.011L17.145,17.052ZM17.513,16.977L17.145,17.052L17.544,19.011L17.912,18.936L17.513,16.977ZM18.5,15.76C18.5,16.354 18.084,16.86 17.513,16.977L17.912,18.936C19.421,18.629 20.5,17.298 20.5,15.76H18.5ZM17.865,14.673C18.244,14.885 18.5,15.292 18.5,15.76H20.5C20.5,14.542 19.83,13.481 18.841,12.927L17.865,14.673ZM17.23,13.165L17.207,13.304L19.178,13.642L19.202,13.502L17.23,13.165ZM17.074,9.579C17.381,10.749 17.435,11.972 17.23,13.165L19.202,13.502C19.454,12.029 19.388,10.518 19.009,9.072L17.074,9.579ZM17.012,9.341L17.074,9.579L19.009,9.072L18.947,8.834L17.012,9.341ZM13.653,5.757C15.303,6.302 16.568,7.65 17.012,9.341L18.947,8.834C18.332,6.49 16.577,4.616 14.281,3.858L13.653,5.757ZM10.467,5.753C11.501,5.418 12.625,5.418 13.653,5.757L14.281,3.858C12.844,3.384 11.284,3.385 9.85,3.85L10.467,5.753ZM18.841,12.927C19.071,13.056 19.231,13.329 19.178,13.642L17.207,13.304C17.108,13.879 17.403,14.414 17.865,14.673L18.841,12.927ZM4.826,13.667C4.77,13.34 4.939,13.047 5.189,12.911L6.147,14.666C6.605,14.417 6.894,13.891 6.798,13.329L4.826,13.667ZM8.897,19.396C10.959,19.628 13.041,19.628 15.103,19.396L14.879,17.409C12.966,17.624 11.034,17.624 9.121,17.409L8.897,19.396Z" id="path_2"/></svg>