<svg id="vector" xmlns="http://www.w3.org/2000/svg" width="24.0d" height="24.0d" viewBox="0 0 24.0 24.0"><path d="M6.028,8.633L6.993,8.894L6.993,8.894L6.028,8.633ZM10.158,4.302L9.85,3.351V3.351L10.158,4.302ZM5.983,8.798L5.018,8.537L5.018,8.537L5.983,8.798ZM5.79,12.867L6.775,12.699L5.79,12.867ZM5.812,12.999L4.826,13.168L4.826,13.168L5.812,12.999ZM6.288,17.457L6.487,16.477L6.288,17.457ZM6.655,17.532L6.855,16.552H6.855L6.655,17.532ZM17.345,17.532L17.145,16.552L17.345,17.532ZM17.712,17.457L17.912,18.437L17.712,17.457ZM18.192,12.974L19.178,13.142L19.178,13.142L18.192,12.974ZM18.216,12.834L17.23,12.665L17.23,12.665L18.216,12.834ZM18.042,8.826L17.074,9.08V9.08L18.042,8.826ZM17.979,8.588L18.947,8.335V8.335L17.979,8.588ZM13.967,4.308L14.281,3.359V3.359L13.967,4.308ZM18.353,13.301L17.865,14.173L18.353,13.301ZM5.668,13.289L5.189,12.411L5.668,13.289ZM13,3C13,2.448 12.552,2 12,2C11.448,2 11,2.448 11,3H13ZM11,4.005C11,4.557 11.448,5.005 12,5.005C12.552,5.005 13,4.557 13,4.005H11ZM9.009,17.903L9.121,16.91L7.924,16.775L8.012,17.976L9.009,17.903ZM14.991,17.903L15.988,17.976L16.076,16.775L14.879,16.91L14.991,17.903ZM14.9,18.477L15.871,18.716L14.9,18.477ZM14.818,18.811L13.847,18.572V18.572L14.818,18.811ZM12.704,20.917L12.936,21.889H12.936L12.704,20.917ZM11.296,20.917L11.064,21.889H11.064L11.296,20.917ZM9.182,18.811L8.211,19.049L9.182,18.811ZM9.1,18.477L10.071,18.238V18.238L9.1,18.477ZM6.993,8.894C7.458,7.177 8.777,5.801 10.467,5.253L9.85,3.351C7.523,4.105 5.706,5.997 5.063,8.371L6.993,8.894ZM6.948,9.06L6.993,8.894L5.063,8.371L5.018,8.537L6.948,9.06ZM6.775,12.699C6.568,11.488 6.627,10.245 6.948,9.06L5.018,8.537C4.62,10.003 4.547,11.539 4.804,13.036L6.775,12.699ZM6.798,12.83L6.775,12.699L4.804,13.036L4.826,13.168L6.798,12.83ZM5.5,15.26C5.5,14.788 5.761,14.377 6.147,14.167L5.189,12.411C4.184,12.96 3.5,14.03 3.5,15.26H5.5ZM6.487,16.477C5.916,16.361 5.5,15.854 5.5,15.26H3.5C3.5,16.799 4.579,18.13 6.088,18.437L6.487,16.477ZM6.855,16.552L6.487,16.477L6.088,18.437L6.456,18.512L6.855,16.552ZM17.145,16.552C13.75,17.244 10.25,17.244 6.855,16.552L6.456,18.512C10.115,19.257 13.885,19.257 17.544,18.512L17.145,16.552ZM17.513,16.477L17.145,16.552L17.544,18.512L17.912,18.437L17.513,16.477ZM18.5,15.26C18.5,15.854 18.084,16.361 17.513,16.477L17.912,18.437C19.421,18.13 20.5,16.799 20.5,15.26H18.5ZM17.865,14.173C18.244,14.386 18.5,14.793 18.5,15.26H20.5C20.5,14.043 19.83,12.981 18.841,12.428L17.865,14.173ZM17.23,12.665L17.207,12.805L19.178,13.142L19.202,13.003L17.23,12.665ZM17.074,9.08C17.381,10.25 17.435,11.473 17.23,12.665L19.202,13.003C19.454,11.529 19.388,10.019 19.009,8.572L17.074,9.08ZM17.012,8.842L17.074,9.08L19.009,8.572L18.947,8.335L17.012,8.842ZM13.653,5.258C15.303,5.803 16.568,7.151 17.012,8.842L18.947,8.335C18.332,5.991 16.577,4.117 14.281,3.359L13.653,5.258ZM10.467,5.253C11.501,4.918 12.625,4.918 13.653,5.258L14.281,3.359C12.844,2.884 11.284,2.886 9.85,3.351L10.467,5.253ZM18.841,12.428C19.071,12.557 19.231,12.83 19.178,13.142L17.207,12.805C17.108,13.38 17.403,13.915 17.865,14.173L18.841,12.428ZM4.826,13.168C4.77,12.84 4.939,12.548 5.189,12.411L6.147,14.167C6.605,13.917 6.894,13.392 6.798,12.83L4.826,13.168ZM11,3V4.005H13V3H11ZM8.897,18.897C10.959,19.129 13.041,19.129 15.103,18.897L14.879,16.91C12.966,17.125 11.034,17.125 9.121,16.91L8.897,18.897ZM15.871,18.716C15.931,18.473 15.97,18.225 15.988,17.976L13.993,17.831C13.983,17.968 13.962,18.105 13.929,18.238L15.871,18.716ZM15.789,19.049L15.871,18.716L13.929,18.238L13.847,18.572L15.789,19.049ZM12.936,21.889C14.344,21.553 15.443,20.455 15.789,19.049L13.847,18.572C13.679,19.255 13.147,19.783 12.471,19.944L12.936,21.889ZM11.064,21.889C11.679,22.037 12.321,22.037 12.936,21.889L12.471,19.944C12.161,20.018 11.839,20.018 11.529,19.944L11.064,21.889ZM8.211,19.049C8.556,20.455 9.656,21.553 11.064,21.889L11.529,19.944C10.853,19.783 10.321,19.255 10.153,18.572L8.211,19.049ZM8.129,18.716L8.211,19.049L10.153,18.572L10.071,18.238L8.129,18.716ZM8.012,17.976C8.03,18.225 8.069,18.473 8.129,18.716L10.071,18.238C10.038,18.105 10.017,17.968 10.007,17.831L8.012,17.976Z" id="path_0"/></svg>