<svg id="vector" xmlns="http://www.w3.org/2000/svg" width="24.0d" height="25.0d" viewBox="0 0 24.0 25.0"><path fill="?colorOnSurface" d="M8.191,3.656C7.305,3.448 6.382,3.448 5.496,3.656C4.335,3.928 3.428,4.835 3.156,5.996C2.948,6.882 2.948,7.805 3.156,8.691C3.428,9.852 4.335,10.759 5.496,11.031C6.382,11.239 7.305,11.239 8.191,11.031C9.352,10.759 10.259,9.852 10.531,8.691C10.739,7.805 10.739,6.882 10.531,5.996C10.259,4.835 9.352,3.928 8.191,3.656Z" id="path_0"/><path fill="?colorOnSurface" d="M8.191,13.969C7.305,13.761 6.382,13.761 5.496,13.969C4.335,14.241 3.428,15.148 3.156,16.309C2.948,17.195 2.948,18.118 3.156,19.004C3.428,20.165 4.335,21.072 5.496,21.344C6.382,21.552 7.305,21.552 8.191,21.344C9.352,21.072 10.259,20.165 10.531,19.004C10.739,18.118 10.739,17.195 10.531,16.309C10.259,15.148 9.352,14.241 8.191,13.969Z" id="path_1"/><path fill="?colorOnSurface" d="M18.504,3.656C17.618,3.448 16.695,3.448 15.809,3.656C14.648,3.928 13.741,4.835 13.469,5.996C13.261,6.882 13.261,7.805 13.469,8.691C13.741,9.852 14.648,10.759 15.809,11.031C16.695,11.239 17.618,11.239 18.504,11.031C19.665,10.759 20.572,9.852 20.844,8.691C21.052,7.805 21.052,6.882 20.844,5.996C20.572,4.835 19.665,3.928 18.504,3.656Z" id="path_2"/><path fill="?colorOnSurface" d="M18.504,13.969C17.618,13.761 16.695,13.761 15.809,13.969C14.648,14.241 13.741,15.148 13.469,16.309C13.261,17.195 13.261,18.118 13.469,19.004C13.741,20.165 14.648,21.072 15.809,21.344C16.695,21.552 17.618,21.552 18.504,21.344C19.665,21.072 20.572,20.165 20.844,19.004C21.052,18.118 21.052,17.195 20.844,16.309C20.572,15.148 19.665,14.241 18.504,13.969Z" id="path_3"/><path fill="#00000000" d="M8.191,3.656C7.305,3.448 6.382,3.448 5.496,3.656C4.335,3.928 3.428,4.835 3.156,5.996C2.948,6.882 2.948,7.805 3.156,8.691C3.428,9.852 4.335,10.759 5.496,11.031C6.382,11.239 7.305,11.239 8.191,11.031C9.352,10.759 10.259,9.852 10.531,8.691C10.739,7.805 10.739,6.882 10.531,5.996C10.259,4.835 9.352,3.928 8.191,3.656Z" stroke="?colorOnSurface" stroke-width="2.0" id="path_4"/><path fill="#00000000" d="M8.191,13.969C7.305,13.761 6.382,13.761 5.496,13.969C4.335,14.241 3.428,15.148 3.156,16.309C2.948,17.195 2.948,18.118 3.156,19.004C3.428,20.165 4.335,21.072 5.496,21.344C6.382,21.552 7.305,21.552 8.191,21.344C9.352,21.072 10.259,20.165 10.531,19.004C10.739,18.118 10.739,17.195 10.531,16.309C10.259,15.148 9.352,14.241 8.191,13.969Z" stroke="?colorOnSurface" stroke-width="2.0" id="path_5"/><path fill="#00000000" d="M18.504,3.656C17.618,3.448 16.695,3.448 15.809,3.656C14.648,3.928 13.741,4.835 13.469,5.996C13.261,6.882 13.261,7.805 13.469,8.691C13.741,9.852 14.648,10.759 15.809,11.031C16.695,11.239 17.618,11.239 18.504,11.031C19.665,10.759 20.572,9.852 20.844,8.691C21.052,7.805 21.052,6.882 20.844,5.996C20.572,4.835 19.665,3.928 18.504,3.656Z" stroke="?colorOnSurface" stroke-width="2.0" id="path_6"/><path fill="#00000000" d="M18.504,13.969C17.618,13.761 16.695,13.761 15.809,13.969C14.648,14.241 13.741,15.148 13.469,16.309C13.261,17.195 13.261,18.118 13.469,19.004C13.741,20.165 14.648,21.072 15.809,21.344C16.695,21.552 17.618,21.552 18.504,21.344C19.665,21.072 20.572,20.165 20.844,19.004C21.052,18.118 21.052,17.195 20.844,16.309C20.572,15.148 19.665,14.241 18.504,13.969Z" stroke="?colorOnSurface" stroke-width="2.0" id="path_7"/></svg>