<svg id="vector" xmlns="http://www.w3.org/2000/svg" width="25.0d" height="25.0d" viewBox="0 0 25.0 25.0"><path fill="#00000000" d="M5.1,19.611C5.1,17.198 6.797,15.143 9.104,14.763L9.312,14.728C11.159,14.424 13.041,14.424 14.888,14.728L15.096,14.763C17.403,15.143 19.1,17.198 19.1,19.611C19.1,20.654 18.281,21.5 17.272,21.5H6.928C5.918,21.5 5.1,20.654 5.1,19.611Z" stroke="?colorOnSurface" stroke-width="2.0" id="path_0"/><path fill="#00000000" d="M16.183,7.438C16.183,9.612 14.355,11.375 12.1,11.375C9.845,11.375 8.017,9.612 8.017,7.438C8.017,5.263 9.845,3.5 12.1,3.5C14.355,3.5 16.183,5.263 16.183,7.438Z" stroke="?colorOnSurface" stroke-width="2.0" id="path_1"/></svg>