<svg id="vector" xmlns="http://www.w3.org/2000/svg" width="24.0d" height="24.0d" viewBox="0 0 24.0 24.0"><path  d="M6.028,8.632L6.993,8.893L6.993,8.893L6.028,8.632ZM10.158,4.302L9.85,3.35L10.158,4.302ZM5.983,8.797L5.018,8.536L5.018,8.536L5.983,8.797ZM5.79,12.867L6.775,12.698L6.775,12.698L5.79,12.867ZM5.812,12.998L4.826,13.167L4.826,13.167L5.812,12.998ZM6.288,17.456L6.487,16.477H6.487L6.288,17.456ZM6.655,17.531L6.456,18.511H6.456L6.655,17.531ZM17.345,17.531L17.544,18.511H17.544L17.345,17.531ZM17.712,17.456L17.513,16.477H17.513L17.712,17.456ZM18.192,12.973L19.178,13.142L19.178,13.142L18.192,12.973ZM18.216,12.834L17.23,12.665L17.23,12.665L18.216,12.834ZM18.042,8.826L17.074,9.079V9.079L18.042,8.826ZM17.979,8.588L18.947,8.334V8.334L17.979,8.588ZM13.967,4.308L14.281,3.358L13.967,4.308ZM18.353,13.3L17.865,14.173L18.353,13.3ZM5.668,13.288L6.147,14.166L5.668,13.288ZM9.009,17.903L9.121,16.909L7.924,16.774L8.012,17.975L9.009,17.903ZM14.991,17.903L15.988,17.975L16.076,16.774L14.879,16.909L14.991,17.903ZM14.9,18.476L15.871,18.715V18.715L14.9,18.476ZM14.818,18.81L13.847,18.571V18.571L14.818,18.81ZM12.704,20.916L12.936,21.889L12.936,21.889L12.704,20.916ZM11.296,20.916L11.064,21.889H11.064L11.296,20.916ZM9.182,18.81L10.153,18.571L9.182,18.81ZM9.1,18.476L8.129,18.715L9.1,18.476ZM6.993,8.893C7.458,7.176 8.777,5.8 10.467,5.253L9.85,3.35C7.523,4.105 5.706,5.996 5.063,8.37L6.993,8.893ZM6.948,9.059L6.993,8.893L5.063,8.37L5.018,8.536L6.948,9.059ZM6.775,12.698C6.568,11.487 6.627,10.245 6.948,9.059L5.018,8.536C4.62,10.002 4.547,11.538 4.804,13.035L6.775,12.698ZM6.798,12.829L6.775,12.698L4.804,13.035L4.826,13.167L6.798,12.829ZM5.5,15.26C5.5,14.787 5.761,14.377 6.147,14.166L5.189,12.411C4.184,12.959 3.5,14.03 3.5,15.26H5.5ZM6.487,16.477C5.916,16.36 5.5,15.854 5.5,15.26H3.5C3.5,16.798 4.579,18.129 6.088,18.436L6.487,16.477ZM6.855,16.552L6.487,16.477L6.088,18.436L6.456,18.511L6.855,16.552ZM17.145,16.552C13.75,17.243 10.25,17.243 6.855,16.552L6.456,18.511C10.115,19.257 13.885,19.257 17.544,18.511L17.145,16.552ZM17.513,16.477L17.145,16.552L17.544,18.511L17.912,18.436L17.513,16.477ZM18.5,15.26C18.5,15.854 18.084,16.36 17.513,16.477L17.912,18.436C19.421,18.129 20.5,16.798 20.5,15.26H18.5ZM17.865,14.173C18.244,14.385 18.5,14.792 18.5,15.26H20.5C20.5,14.042 19.83,12.981 18.841,12.427L17.865,14.173ZM17.23,12.665L17.207,12.804L19.178,13.142L19.202,13.002L17.23,12.665ZM17.074,9.079C17.381,10.249 17.435,11.472 17.23,12.665L19.202,13.002C19.454,11.529 19.388,10.018 19.009,8.572L17.074,9.079ZM17.012,8.841L17.074,9.079L19.009,8.572L18.947,8.334L17.012,8.841ZM13.653,5.257C15.303,5.802 16.568,7.15 17.012,8.841L18.947,8.334C18.332,5.99 16.577,4.116 14.281,3.358L13.653,5.257ZM10.467,5.253C11.501,4.918 12.625,4.918 13.653,5.257L14.281,3.358C12.844,2.884 11.284,2.885 9.85,3.35L10.467,5.253ZM18.841,12.427C19.071,12.556 19.231,12.829 19.178,13.142L17.207,12.804C17.108,13.379 17.403,13.914 17.865,14.173L18.841,12.427ZM4.826,13.167C4.77,12.84 4.939,12.547 5.189,12.411L6.147,14.166C6.605,13.917 6.894,13.391 6.798,12.829L4.826,13.167ZM8.897,18.896C10.959,19.128 13.041,19.128 15.103,18.896L14.879,16.909C12.966,17.124 11.034,17.124 9.121,16.909L8.897,18.896ZM15.871,18.715C15.931,18.472 15.97,18.225 15.988,17.975L13.993,17.83C13.983,17.968 13.962,18.104 13.929,18.238L15.871,18.715ZM15.789,19.049L15.871,18.715L13.929,18.238L13.847,18.571L15.789,19.049ZM12.936,21.889C14.344,21.552 15.443,20.455 15.789,19.049L13.847,18.571C13.679,19.254 13.147,19.782 12.471,19.944L12.936,21.889ZM11.064,21.889C11.679,22.036 12.321,22.036 12.936,21.889L12.471,19.944C12.161,20.018 11.839,20.018 11.529,19.944L11.064,21.889ZM8.211,19.049C8.556,20.455 9.656,21.552 11.064,21.889L11.529,19.944C10.853,19.782 10.321,19.254 10.153,18.571L8.211,19.049ZM8.129,18.715L8.211,19.049L10.153,18.571L10.071,18.238L8.129,18.715ZM8.012,17.975C8.03,18.225 8.069,18.472 8.129,18.715L10.071,18.238C10.038,18.104 10.017,17.968 10.007,17.83L8.012,17.975Z" id="path_0"/><path  d="M6.028,8.632L6.993,8.893L6.993,8.893L6.028,8.632ZM10.158,4.302L9.85,3.35L10.158,4.302ZM5.983,8.797L5.018,8.536L5.018,8.536L5.983,8.797ZM5.79,12.867L6.775,12.698L6.775,12.698L5.79,12.867ZM5.812,12.998L4.826,13.167L4.826,13.167L5.812,12.998ZM6.288,17.456L6.487,16.477H6.487L6.288,17.456ZM6.655,17.531L6.456,18.511H6.456L6.655,17.531ZM17.345,17.531L17.544,18.511H17.544L17.345,17.531ZM17.712,17.456L17.513,16.477H17.513L17.712,17.456ZM18.192,12.973L19.178,13.142L19.178,13.142L18.192,12.973ZM18.216,12.834L17.23,12.665L17.23,12.665L18.216,12.834ZM18.042,8.826L17.074,9.079V9.079L18.042,8.826ZM17.979,8.588L18.947,8.334V8.334L17.979,8.588ZM13.967,4.308L14.281,3.358L13.967,4.308ZM18.353,13.3L17.865,14.173L18.353,13.3ZM5.668,13.288L6.147,14.166L5.668,13.288ZM9.121,16.909C8.572,16.847 8.077,17.242 8.015,17.791C7.954,18.34 8.349,18.835 8.897,18.896L9.121,16.909ZM14.991,17.903L15.988,17.975L16.076,16.774L14.879,16.909L14.991,17.903ZM13.929,18.238C13.797,18.774 14.125,19.316 14.661,19.448C15.198,19.58 15.739,19.252 15.871,18.715L13.929,18.238ZM6.993,8.893C7.458,7.176 8.777,5.8 10.467,5.253L9.85,3.35C7.523,4.105 5.706,5.996 5.063,8.37L6.993,8.893ZM6.948,9.059L6.993,8.893L5.063,8.37L5.018,8.536L6.948,9.059ZM6.775,12.698C6.568,11.487 6.627,10.245 6.948,9.059L5.018,8.536C4.62,10.002 4.547,11.538 4.804,13.035L6.775,12.698ZM6.798,12.829L6.775,12.698L4.804,13.035L4.826,13.167L6.798,12.829ZM5.5,15.26C5.5,14.787 5.761,14.377 6.147,14.166L5.189,12.411C4.184,12.959 3.5,14.03 3.5,15.26H5.5ZM6.487,16.477C5.916,16.36 5.5,15.854 5.5,15.26H3.5C3.5,16.798 4.579,18.129 6.088,18.436L6.487,16.477ZM6.855,16.552L6.487,16.477L6.088,18.436L6.456,18.511L6.855,16.552ZM17.145,16.552C13.75,17.243 10.25,17.243 6.855,16.552L6.456,18.511C10.115,19.257 13.885,19.257 17.544,18.511L17.145,16.552ZM17.513,16.477L17.145,16.552L17.544,18.511L17.912,18.436L17.513,16.477ZM18.5,15.26C18.5,15.854 18.084,16.36 17.513,16.477L17.912,18.436C19.421,18.129 20.5,16.798 20.5,15.26H18.5ZM17.865,14.173C18.244,14.385 18.5,14.792 18.5,15.26H20.5C20.5,14.042 19.83,12.981 18.841,12.427L17.865,14.173ZM17.23,12.665L17.207,12.804L19.178,13.142L19.202,13.002L17.23,12.665ZM17.074,9.079C17.381,10.249 17.435,11.472 17.23,12.665L19.202,13.002C19.454,11.529 19.388,10.018 19.009,8.572L17.074,9.079ZM17.012,8.841L17.074,9.079L19.009,8.572L18.947,8.334L17.012,8.841ZM13.653,5.257C15.303,5.802 16.568,7.15 17.012,8.841L18.947,8.334C18.332,5.99 16.577,4.116 14.281,3.358L13.653,5.257ZM10.467,5.253C11.501,4.918 12.625,4.918 13.653,5.257L14.281,3.358C12.844,2.884 11.284,2.885 9.85,3.35L10.467,5.253ZM18.841,12.427C19.071,12.556 19.231,12.829 19.178,13.142L17.207,12.804C17.108,13.379 17.403,13.914 17.865,14.173L18.841,12.427ZM4.826,13.167C4.77,12.84 4.939,12.547 5.189,12.411L6.147,14.166C6.605,13.917 6.894,13.391 6.798,12.829L4.826,13.167ZM8.897,18.896C10.959,19.128 13.041,19.128 15.103,18.896L14.879,16.909C12.966,17.124 11.034,17.124 9.121,16.909L8.897,18.896ZM15.871,18.715C15.931,18.472 15.97,18.225 15.988,17.975L13.993,17.83C13.983,17.968 13.962,18.104 13.929,18.238L15.871,18.715Z" id="path_1"/></svg>