<svg id="vector" xmlns="http://www.w3.org/2000/svg" width="24.0d" height="24.0d" viewBox="0 0 24.0 24.0"><path fill="#00000000" d="M3.353,8.95C4.004,6.173 6.173,4.004 8.95,3.353C10.956,2.882 13.044,2.882 15.05,3.353C17.827,4.004 19.996,6.173 20.647,8.95C21.118,10.956 21.118,13.044 20.647,15.05C19.996,17.827 17.827,19.996 15.05,20.647C13.044,21.118 10.956,21.118 8.95,20.647C6.173,19.996 4.004,17.827 3.353,15.05C2.882,13.044 2.882,10.956 3.353,8.95Z" stroke-width="2.0" id="path_0"/><path fill="#00000000" d="M13.768,10.232L10.232,13.768M13.768,13.768L10.232,10.232" stroke-width="2.0" stroke-linecap="round" id="path_1"/></svg>