<svg id="vector" xmlns="http://www.w3.org/2000/svg" width="150.0d" height="105.0d" viewBox="0 0 150.0 105.0"><path fill="#ffffffff" d="M75,2.5c27.614,0 50,22.386 50,50s-22.386,50 -50,50 -50,-22.386 -50,-50 22.386,-50 50,-50zM75,72.5c-4.142,0 -7.5,3.358 -7.5,7.5 0,4.142 3.358,7.5 7.5,7.5 4.142,0 7.5,-3.358 7.5,-7.5 0,-4.142 -3.358,-7.5 -7.5,-7.5zM75,16c-4.142,0 -7.5,3.358 -7.5,7.5v35c0,4.142 3.358,7.5 7.5,7.5 4.142,0 7.5,-3.358 7.5,-7.5v-35c0,-4.142 -3.358,-7.5 -7.5,-7.5z" fill-rule="evenodd" id="path_0"/></svg>