<svg id="vector" xmlns="http://www.w3.org/2000/svg" width="24.0d" height="24.0d" viewBox="0 0 24.0 24.0"><path fill="#37bc9bff" d="M12,0L12,0A12,12 0,0 1,24 12L24,12A12,12 0,0 1,12 24L12,24A12,12 0,0 1,0 12L0,12A12,12 0,0 1,12 0z" id="path_0"/><path fill="?colorOnSurface" d="M16.0847,7.2164C16.3813,7.2402 16.6671,7.2906 16.9403,7.3697C17.6081,7.5629 18.1228,7.8372 18.4995,8.1758C19.0117,8.6363 19.1951,9.1197 19.1999,9.4748C19.2009,9.741 19.0791,10.1474 18.7347,10.6367C18.2156,11.3742 17.313,12.0964 15.9429,12.763C16.4389,13.2613 16.6283,13.8145 16.2434,14.3803C15.9366,14.8315 15.5173,14.6716 15.2052,14.2728C15.1067,14.1469 15.0086,13.9905 14.9012,13.7965C14.8583,13.7191 14.8162,13.6399 14.7655,13.5421C14.7641,13.5394 14.7591,13.5298 14.752,13.5159C13.776,14.2166 12.752,14.6738 11.7053,14.9191C11.6812,14.992 11.6533,15.0603 11.6169,15.1308C11.5217,15.3153 11.3805,15.488 11.1791,15.6512C10.8993,15.8778 10.6446,15.7108 10.5374,15.4776C10.5061,15.4093 10.4859,15.3393 10.458,15.2213L10.4376,15.1342C10.4359,15.1269 10.4342,15.1199 10.4326,15.1132C9.7034,15.1662 9.0283,15.1175 8.4298,15.002C8.3619,14.9889 8.2989,14.9757 8.2409,14.9627C8.1543,15.201 8.0453,15.439 7.9109,15.664C7.5199,16.3185 6.9878,16.7463 6.2926,16.7989C6.0922,16.8141 5.9162,16.668 5.8962,16.4698C5.8817,16.3258 5.8741,16.1715 5.8728,16.0082C5.8703,15.6908 5.8909,15.354 5.9268,15.0189C5.9316,14.974 5.9365,14.9305 5.9415,14.8885C5.5309,14.7016 5.0227,14.3648 4.5183,13.8335C4.4383,13.7493 4.3603,13.6615 4.2845,13.5703C4.1114,13.3618 4.2173,13.0458 4.4818,12.9812C4.6576,12.9383 4.8397,12.9093 5.0272,12.8933C5.6933,12.8364 6.3939,12.9418 7.0835,13.1509C7.2788,13.2102 7.4588,13.2737 7.6197,13.3374C7.6372,13.3443 7.6538,13.351 7.6695,13.3574C8.3859,13.0217 9.0438,12.4667 9.6358,11.7498C10.0002,11.3085 10.3166,10.8341 10.5826,10.3597C10.6519,10.236 10.714,10.1192 10.7687,10.0108C10.4717,9.7902 10.0478,9.4148 9.491,8.836C9.3211,8.6595 9.3693,8.3709 9.5875,8.258C9.6033,8.2499 9.6111,8.2459 9.619,8.2419C9.6269,8.2379 9.6347,8.234 9.6504,8.2262C10.5282,7.7927 11.4522,7.7412 12.2979,7.9107C12.3757,7.9263 12.444,7.9421 12.5021,7.957C12.5442,7.9375 12.5931,7.9154 12.6483,7.8912C12.8672,7.7954 13.112,7.6998 13.3774,7.6106C14.2875,7.3049 15.2103,7.1463 16.0847,7.2164ZM16.0001,9.9995C16.3683,9.9995 16.6667,9.701 16.6667,9.3328C16.6667,8.9646 16.3683,8.6662 16.0001,8.6662C15.6319,8.6662 15.3334,8.9646 15.3334,9.3328C15.3334,9.701 15.6319,9.9995 16.0001,9.9995Z" fill-rule="evenodd" id="path_1"/></svg>