<svg id="vector" xmlns="http://www.w3.org/2000/svg" width="24.0d" height="24.0d" viewBox="0 0 24.0 24.0"><path fill="#00c795ff" d="M24,12C24,18.627 18.627,24 12,24C5.373,24 0,18.627 0,12C0,5.373 5.373,0 12,0C18.627,0 24,5.373 24,12Z" id="path_0"/><path d="M12,5.461C12.208,5.461 12.397,5.584 12.489,5.779L14.048,9.084L17.533,9.617C17.739,9.649 17.909,9.799 17.973,10.006C18.037,10.213 17.984,10.439 17.835,10.591L15.313,13.162L15.908,16.794C15.944,17.008 15.859,17.224 15.691,17.352C15.524,17.48 15.301,17.497 15.117,17.395L12,15.68L8.883,17.395C8.699,17.497 8.477,17.48 8.309,17.352C8.141,17.224 8.056,17.008 8.092,16.794L8.687,13.162L6.165,10.591C6.016,10.439 5.963,10.213 6.027,10.006C6.091,9.799 6.261,9.649 6.467,9.617L9.952,9.084L11.511,5.779C11.603,5.584 11.792,5.461 12,5.461Z" fill-rule="evenodd" id="path_1"/></svg>