<svg id="vector" xmlns="http://www.w3.org/2000/svg" width="24.0d" height="24.0d" viewBox="0 0 24.0 24.0"><path fill="#00000000" d="M5,19.111C5,16.698 6.697,14.643 9.004,14.263L9.212,14.228C11.059,13.924 12.941,13.924 14.788,14.228L14.996,14.263C17.303,14.643 19,16.698 19,19.111C19,20.154 18.181,21 17.172,21H6.828C5.818,21 5,20.154 5,19.111Z" stroke-width="2.0" id="path_0"/><path fill="#00000000" d="M16.083,6.938C16.083,9.112 14.255,10.875 12,10.875C9.745,10.875 7.917,9.112 7.917,6.938C7.917,4.763 9.745,3 12,3C14.255,3 16.083,4.763 16.083,6.938Z" stroke-width="2.0" id="path_1"/></svg>