<svg id="vector" xmlns="http://www.w3.org/2000/svg" width="16.0d" height="17.0d" viewBox="0 0 16.0 17.0"><path d="M8,8.5m-8,0a8,8 0,1 1,16 0a8,8 0,1 1,-16 0" id="path_0"/><path d="M3,3h10v10h-10z" id="path_1"/><path fill="white" d="M8.833,5.083V6.75H11.192C11.313,6.749 11.432,6.774 11.542,6.823C11.653,6.873 11.751,6.945 11.83,7.036C11.909,7.128 11.968,7.235 12.001,7.351C12.035,7.467 12.043,7.589 12.025,7.708L11.45,11.458C11.42,11.657 11.319,11.838 11.166,11.968C11.013,12.099 10.818,12.169 10.617,12.167H5.92V7.581H5.918L7.583,3.833C7.915,3.833 8.233,3.965 8.467,4.199C8.702,4.434 8.833,4.752 8.833,5.083ZM5.503,7.583H4.667C4.446,7.583 4.234,7.671 4.077,7.827C3.921,7.984 3.833,8.196 3.833,8.417V11.333C3.833,11.554 3.921,11.766 4.077,11.923C4.234,12.079 4.446,12.167 4.667,12.167H5.503V7.583Z" fill-rule="evenodd" id="path_2"/></svg>