<svg id="vector" xmlns="http://www.w3.org/2000/svg" width="24.0d" height="24.0d" viewBox="0 0 24.0 24.0"><path fill="#00000000" d="M3.297,14.328L14.611,3.014A2,2 89.786,0 1,17.439 3.014L21.061,6.636A2,2 76.452,0 1,21.061 9.465L9.747,20.778A2,2 56.445,0 1,6.919 20.778L3.297,17.156A2,2 106.287,0 1,3.297 14.328z" stroke-width="2.0" id="path_0"/><path fill="#00000000" d="M10.869,19L8.869,17" stroke-width="1.0" stroke-linecap="round" id="path_1"/><path fill="#00000000" d="M12.869,17L10.869,15" stroke-width="1.0" stroke-linecap="round" id="path_2"/><path fill="#00000000" d="M14.869,15L12.869,13" stroke-width="1.0" stroke-linecap="round" id="path_3"/><path fill="#00000000" d="M16.869,13L14.869,11" stroke-width="1.0" stroke-linecap="round" id="path_4"/><path fill="#00000000" d="M18.869,11L16.869,9" stroke-width="1.0" stroke-linecap="round" id="path_5"/></svg>