<svg id="vector" xmlns="http://www.w3.org/2000/svg" width="24.0d" height="24.0d" viewBox="0 0 24.0 24.0"><path fill="#00000000" d="M18.48,15.536H21M4.68,8L3,8.044M4.68,8C4.68,9.325 5.755,10.4 7.08,10.4C8.405,10.4 9.48,9.325 9.48,8C9.48,6.674 8.405,5.6 7.08,5.6C5.755,5.6 4.68,6.674 4.68,8ZM10.169,8.044H21M3,15.536H12.801M17.88,15.6C17.88,16.925 16.806,18 15.48,18C14.155,18 13.08,16.925 13.08,15.6C13.08,14.274 14.155,13.2 15.48,13.2C16.806,13.2 17.88,14.274 17.88,15.6Z"  stroke-width="2.0" stroke-linecap="round" id="path_0"/></svg>